# xmcd
#
# Track frame offsets:
#	150
#	10714
#	22499
#	35544
#	44091
#	55936
#	69743
#	84590
#	96277
#	109669
#	119991
#	132691
#	145058
#
# Disc length: 2079
#
# Revision: 3
# Processed by: cddbd v1.5.1PL0 Copyright (c) Steve Scherf et al.
# Submitted via: CDex 1.50Beta7
# Normalized: r2:TDELIM( - )
#
DISCID=c9081d0d
DTITLE=Various Artist - Fonzie's Make Out Music
DYEAR=1996
DGENRE=Pop
TTITLE0=Fats Domino - Blueberry Hill
TTITLE1=The Platters - Only You (And You Alone)
TTITLE2=Lenny Welch - Since I Fell For You
TTITLE3=The Clovers - Love Potion #9
TTITLE4=The Skyliners - Since I Don't Have You
TTITLE5=Jay and The Americans - This Magic Moment
TTITLE6=The Flamingos - I Only Have Eyes For You
TTITLE7=The Shirelles - Will You Love Me Tomorrow
TTITLE8=The McGuire Sisters - Good Night My Love (Pleasant Dreams)
TTITLE9=Tab Hunter - Young Love
TTITLE10=Bobby Vinton - Blue Velvet
TTITLE11=James Brown - Please, Please, Please
TTITLE12=The Heyettes - The Fonz Song
EXTD=YEAR: 1996
EXTT0=
EXTT1=
EXTT2=
EXTT3=
EXTT4=
EXTT5=
EXTT6=
EXTT7=
EXTT8=
EXTT9=
EXTT10=
EXTT11=
EXTT12=
PLAYORDER=
